<?xml version="1.0" encoding="UTF-8" standalone="no"?><!DOCTYPE svg PUBLIC "-//W3C//DTD SVG 1.1//EN" "http://www.w3.org/Graphics/SVG/1.1/DTD/svg11.dtd"><svg width="100%" height="100%" viewBox="0 0 465 498" version="1.1" xmlns="http://www.w3.org/2000/svg" xmlns:xlink="http://www.w3.org/1999/xlink" xml:space="preserve" xmlns:serif="http://www.serif.com/" style="fill-rule:evenodd;clip-rule:evenodd;stroke-linejoin:round;stroke-miterlimit:2;"><path d="M401.876,169.493c0,-93.457 -76.036,-169.493 -169.493,-169.493c-93.456,0 -169.493,76.036 -169.493,169.493c0,73.187 46.715,135.51 111.826,159.168l0,-59.677c-34.294,-19.951 -57.466,-57.032 -57.466,-99.491c0,-63.489 51.652,-115.134 115.133,-115.134c63.482,0 115.134,51.645 115.134,115.134c0,42.611 -23.331,79.805 -57.828,99.712l0,59.598c65.295,-23.57 112.187,-85.982 112.187,-159.31Z" style="fill:#7dc242;fill-rule:nonzero;"/><path d="M255.794,386.161l-47.131,0l0,-180.18l-53.899,0l0,-40.044l155.239,0l0,40.044l-54.209,0l0,180.18Z" style="fill:#926047;fill-rule:nonzero;"/><path d="M26.012,495.45l-9.861,0l0,-52.364l-16.151,0l0,-8.415l42.078,0l0,8.415l-16.066,0l0,52.364Z" style="fill:#404042;fill-rule:nonzero;"/><path d="M78.286,460.597c8.67,0 13.006,-1.02 13.006,-8.331c0,-7.48 -4.166,-9.095 -13.006,-9.095l-1.785,0l0,17.426l1.785,0Zm-2.381,34.853l-9.266,0l0,-60.779l13.772,0c6.545,0 11.391,0.509 15.131,3.4c3.655,2.89 5.865,7.65 5.865,13.346c0,9.775 -4.76,15.3 -13.94,16.406l20.911,27.627l-11.136,0l-20.231,-27.202l-1.106,0l0,27.202Z" style="fill:#404042;fill-rule:nonzero;"/><path d="M131.239,434.671l33.918,0l0,8.415l-24.057,0l0,15.216l24.057,0l0,8.671l-24.057,0l0,19.636l24.057,0l0,8.841l-33.918,0l0,-60.779Z" style="fill:#404042;fill-rule:nonzero;"/><path d="M193.459,434.671l33.918,0l0,8.415l-24.057,0l0,15.216l24.057,0l0,8.671l-24.057,0l0,19.636l24.057,0l0,8.841l-33.918,0l0,-60.779Z" style="fill:#404042;fill-rule:nonzero;"/><path d="M255.679,432.29l38.592,37.148c2.465,2.38 4.591,4.846 6.631,7.396l0,-42.163l9.096,0l0,63.159l-39.359,-37.827c-2.209,-2.125 -4.165,-4.421 -5.865,-6.801l0,42.248l-9.095,0l0,-63.16Z" style="fill:#404042;fill-rule:nonzero;"/><path d="M391.653,464.337c0.085,2.465 0.17,4.335 0.17,5.696c0,17.256 -10.371,27.032 -28.053,27.032c-9.945,0 -17.68,-2.891 -23.547,-8.841c-5.78,-5.865 -8.925,-14.025 -8.925,-23.036c0,-9.182 3.145,-17.002 9.266,-22.952c5.95,-5.78 14.111,-8.926 23.206,-8.926c9.607,0 17.087,3.486 22.952,10.626l-7.225,5.441c-4.08,-4.761 -9.181,-7.056 -15.557,-7.056c-13.006,0 -22.356,9.096 -22.356,22.782c0,13.856 9.265,23.121 22.441,23.121c11.392,0 18.192,-5.695 18.192,-14.706l0,-0.849l-14.621,0l0,-8.332l24.057,0Z" style="fill:#404042;fill-rule:nonzero;"/><path d="M443.939,471.563l-6.205,-13.856c-0.68,-1.615 -1.445,-3.826 -2.295,-6.885c-0.765,3.059 -1.53,5.27 -2.211,6.885l-6.205,13.856l16.916,0Zm3.486,8.245l-24.057,0l-7.056,15.642l-10.371,0l29.413,-63.16l29.412,63.16l-10.456,0l-6.885,-15.642Z" style="fill:#404042;fill-rule:nonzero;"/></svg>