<?xml version="1.0" encoding="UTF-8" standalone="no"?><!DOCTYPE svg PUBLIC "-//W3C//DTD SVG 1.1//EN" "http://www.w3.org/Graphics/SVG/1.1/DTD/svg11.dtd"><svg width="100%" height="100%" viewBox="0 0 196 59" version="1.1" xmlns="http://www.w3.org/2000/svg" xmlns:xlink="http://www.w3.org/1999/xlink" xml:space="preserve" xmlns:serif="http://www.serif.com/" style="fill-rule:evenodd;clip-rule:evenodd;stroke-linejoin:round;stroke-miterlimit:2;"><path d="M70.772,36.553l-2.798,0l0,-14.861l-4.586,0l0,-2.388l11.942,0l0,2.388l-4.558,0l0,14.861Z" style="fill:#fff;fill-rule:nonzero;"/><path d="M85.606,26.662c2.461,0 3.693,-0.289 3.693,-2.364c0,-2.123 -1.184,-2.581 -3.693,-2.581l-0.505,0l0,4.945l0.505,0Zm-0.675,9.891l-2.631,0l0,-17.249l3.911,0c1.856,0 3.232,0.145 4.294,0.965c1.036,0.82 1.663,2.171 1.663,3.788c0,2.774 -1.351,4.342 -3.956,4.656l5.934,7.84l-3.159,0l-5.741,-7.72l-0.315,0l0,7.72Z" style="fill:#fff;fill-rule:nonzero;"/><path d="M100.633,19.304l9.627,0l0,2.388l-6.826,0l0,4.319l6.826,0l0,2.461l-6.826,0l0,5.572l6.826,0l0,2.509l-9.627,0l0,-17.249Z" style="fill:#fff;fill-rule:nonzero;"/><path d="M118.291,19.304l9.627,0l0,2.388l-6.829,0l0,4.319l6.829,0l0,2.461l-6.829,0l0,5.572l6.829,0l0,2.509l-9.627,0l0,-17.249Z" style="fill:#fff;fill-rule:nonzero;"/><path d="M135.949,18.629l10.955,10.542c0.698,0.676 1.302,1.375 1.881,2.099l0,-11.966l2.58,0l0,17.925l-11.17,-10.736c-0.628,-0.603 -1.181,-1.254 -1.663,-1.93l0,11.99l-2.583,0l0,-17.924Z" style="fill:#fff;fill-rule:nonzero;"/><path d="M174.54,27.723c0.022,0.7 0.048,1.231 0.048,1.617c0,4.897 -2.943,7.672 -7.961,7.672c-2.823,0 -5.02,-0.821 -6.683,-2.51c-1.64,-1.664 -2.534,-3.98 -2.534,-6.537c0,-2.606 0.894,-4.825 2.63,-6.514c1.689,-1.64 4.005,-2.533 6.587,-2.533c2.725,0 4.848,0.989 6.513,3.016l-2.051,1.544c-1.158,-1.351 -2.606,-2.003 -4.413,-2.003c-3.693,0 -6.346,2.582 -6.346,6.466c0,3.932 2.628,6.561 6.368,6.561c3.233,0 5.163,-1.616 5.163,-4.173l0,-0.241l-4.15,0l0,-2.365l6.829,0Z" style="fill:#fff;fill-rule:nonzero;"/><path d="M189.376,29.774l-1.759,-3.932c-0.193,-0.458 -0.412,-1.086 -0.653,-1.954c-0.216,0.868 -0.434,1.496 -0.627,1.954l-1.76,3.932l4.799,0Zm0.991,2.34l-6.828,0l-2.001,4.439l-2.943,0l8.346,-17.924l8.347,17.924l-2.966,0l-1.955,-4.439Z" style="fill:#fff;fill-rule:nonzero;"/><path d="M51.161,25.581c0,-14.105 -11.475,-25.581 -25.58,-25.581c-14.106,0 -25.581,11.476 -25.581,25.581c0,11.046 7.05,20.452 16.877,24.023l0,-9.007c-5.176,-3.011 -8.673,-8.608 -8.673,-15.016c0,-9.582 7.796,-17.377 17.377,-17.377c9.581,0 17.376,7.795 17.376,17.377c0,6.431 -3.521,12.045 -8.727,15.049l0,8.995c9.854,-3.557 16.931,-12.977 16.931,-24.044Z" style="fill:#74c043;fill-rule:nonzero;"/><path d="M29.114,58.282l-7.113,0l0,-27.194l-8.135,0l0,-6.044l23.43,0l0,6.044l-8.182,0l0,27.194Z" style="fill:#b18f79;fill-rule:nonzero;"/></svg>