<?xml version="1.0" standalone="no"?>
<!DOCTYPE svg PUBLIC "-//W3C//DTD SVG 20010904//EN"
 "http://www.w3.org/TR/2001/REC-SVG-20010904/DTD/svg10.dtd">
<svg version="1.0" xmlns="http://www.w3.org/2000/svg"
 width="700.000000pt" height="700.000000pt" viewBox="0 0 700.000000 700.000000"
 preserveAspectRatio="xMidYMid meet">
<metadata>
Created by potrace 1.11, written by Peter Selinger 2001-2013
</metadata>
<g transform="translate(0.000000,700.000000) scale(0.100000,-0.100000)"
fill="#000000" stroke="none">
<path d="M3200 6275 c-344 -44 -702 -171 -982 -348 -526 -333 -907 -855 -1054
-1447 -272 -1098 248 -2227 1262 -2733 59 -30 241 -107 251 -107 2 0 3 190 3
423 l0 423 -102 69 c-140 94 -340 294 -430 430 -122 184 -205 380 -250 589
-19 86 -22 133 -22 316 -1 188 2 228 22 320 123 562 492 996 1021 1201 285
110 652 133 953 58 326 -81 615 -257 836 -509 277 -316 417 -716 399 -1139
-13 -305 -100 -568 -275 -831 -93 -140 -274 -326 -407 -417 -49 -35 -100 -70
-112 -78 l-23 -16 0 -414 c0 -228 4 -416 9 -419 4 -3 48 10 96 30 296 119 563
299 801 540 375 379 603 849 675 1394 19 141 16 481 -5 615 -113 729 -515
1339 -1132 1717 -266 164 -550 267 -884 324 -131 22 -510 28 -650 9z"/>
<path d="M2390 3660 l0 -290 380 0 380 0 0 -1270 0 -1270 335 0 335 0 0 1270
0 1270 385 0 385 0 0 290 0 290 -1100 0 -1100 0 0 -290z"/>
</g>
</svg>
